<?xml version="1.0" encoding="UTF-8" standalone="no"?>
<!-- Generator: Adobe Illustrator 19.2.0, SVG Export Plug-In . SVG Version: 6.00 Build 0)  -->

<svg
   xmlns:dc="http://purl.org/dc/elements/1.1/"
   xmlns:cc="http://creativecommons.org/ns#"
   xmlns:rdf="http://www.w3.org/1999/02/22-rdf-syntax-ns#"
   xmlns:svg="http://www.w3.org/2000/svg"
   xmlns="http://www.w3.org/2000/svg"
   xmlns:xlink="http://www.w3.org/1999/xlink"
   xmlns:sodipodi="http://sodipodi.sourceforge.net/DTD/sodipodi-0.dtd"
   xmlns:inkscape="http://www.inkscape.org/namespaces/inkscape"
   version="1.1"
   id="Layer_1"
   x="0px"
   y="0px"
   viewBox="0 0 696.70001 661.86157"
   xml:space="preserve"
   sodipodi:docname="island.svg"
   width="696.70001"
   height="661.86157"
   inkscape:version="0.92.5 (2060ec1f9f, 2020-04-08)"><metadata
   id="metadata110"><rdf:RDF><cc:Work
       rdf:about=""><dc:format>image/svg+xml</dc:format><dc:type
         rdf:resource="http://purl.org/dc/dcmitype/StillImage" /><dc:title></dc:title></cc:Work></rdf:RDF></metadata><defs
   id="defs108" /><sodipodi:namedview
   pagecolor="#ffffff"
   bordercolor="#666666"
   borderopacity="1"
   objecttolerance="10"
   gridtolerance="10"
   guidetolerance="10"
   inkscape:pageopacity="0"
   inkscape:pageshadow="2"
   inkscape:window-width="1920"
   inkscape:window-height="1048"
   id="namedview106"
   showgrid="false"
   fit-margin-top="0"
   fit-margin-left="0"
   fit-margin-right="0"
   fit-margin-bottom="0"
   inkscape:zoom="0.69532167"
   inkscape:cx="197.18966"
   inkscape:cy="233.9799"
   inkscape:window-x="0"
   inkscape:window-y="0"
   inkscape:window-maximized="1"
   inkscape:current-layer="Layer_1_1_" />
<style
   type="text/css"
   id="style2">
	.st0{fill:#EB6841;}
	.st1{fill:#A26E3D;}
	.st2{clip-path:url(#SVGID_2_);fill:none;stroke:#8B523E;stroke-width:12.4179;stroke-miterlimit:10;}
	.st3{clip-path:url(#SVGID_4_);fill:none;stroke:#8B523E;stroke-width:12.4179;stroke-miterlimit:10;}
	.st4{clip-path:url(#SVGID_6_);fill:none;stroke:#8B523E;stroke-width:12.4179;stroke-miterlimit:10;}
	.st5{clip-path:url(#SVGID_8_);fill:none;stroke:#8B523E;stroke-width:12.4179;stroke-miterlimit:10;}
	.st6{fill:#37AA37;}
	.st7{fill:#1F871F;}
	.st8{clip-path:url(#SVGID_10_);fill:none;stroke:#8B523E;stroke-width:12.4179;stroke-miterlimit:10;}
	.st9{clip-path:url(#SVGID_12_);fill:none;stroke:#8B523E;stroke-width:12.4179;stroke-miterlimit:10;}
	.st10{clip-path:url(#SVGID_14_);fill:none;stroke:#8B523E;stroke-width:12.4179;stroke-miterlimit:10;}
	.st11{fill:#F8DF88;}
</style>
<g
   id="Layer_1_1_"
   transform="translate(-131.8,-149.13842)">
	<g
   id="g102">
		
		<path
   class="st1"
   d="m 354.7,335.2 h 24.9 c 0,0 88.7,76.6 122.9,171.2 34.2,94.6 34.2,171.2 34.2,171.2 h -68.5 c 0,0 14.8,-62.6 -22.6,-171.2 -33.5,-97.7 -90.9,-171.2 -90.9,-171.2 z"
   id="path6"
   inkscape:connector-curvature="0"
   style="fill:#a26e3d" />
		<g
   id="g48">
			<g
   id="g16">
				<defs
   id="defs9">
					<path
   id="SVGID_1_"
   d="m 354.7,335.2 h 24.9 c 0,0 88.7,76.6 122.9,171.2 34.2,94.6 34.2,171.2 34.2,171.2 h -68.5 c 0,0 14.8,-62.6 -22.6,-171.2 -33.5,-97.7 -90.9,-171.2 -90.9,-171.2 z"
   inkscape:connector-curvature="0" />
				</defs>
				<clipPath
   id="SVGID_2_">
					<use
   xlink:href="#SVGID_1_"
   style="overflow:visible"
   id="use11"
   x="0"
   y="0"
   width="100%"
   height="100%" />
				</clipPath>
				<line
   class="st2"
   x1="385.89999"
   y1="423.29999"
   x2="457.10001"
   y2="386.60001"
   clip-path="url(#SVGID_2_)"
   id="line14"
   style="fill:none;stroke:#8b523e;stroke-width:12.41790009;stroke-miterlimit:10" />
			</g>
			<g
   id="g26">
				<defs
   id="defs19">
					<path
   id="SVGID_3_"
   d="m 354.7,335.2 h 24.9 c 0,0 88.7,76.6 122.9,171.2 34.2,94.6 34.2,171.2 34.2,171.2 h -68.5 c 0,0 14.8,-62.6 -22.6,-171.2 -33.5,-97.7 -90.9,-171.2 -90.9,-171.2 z"
   inkscape:connector-curvature="0" />
				</defs>
				<clipPath
   id="SVGID_4_">
					<use
   xlink:href="#SVGID_3_"
   style="overflow:visible"
   id="use21"
   x="0"
   y="0"
   width="100%"
   height="100%" />
				</clipPath>
				<line
   class="st3"
   x1="417.5"
   y1="478.89999"
   x2="489.5"
   y2="448.29999"
   clip-path="url(#SVGID_4_)"
   id="line24"
   style="fill:none;stroke:#8b523e;stroke-width:12.41790009;stroke-miterlimit:10" />
			</g>
			<g
   id="g36">
				<defs
   id="defs29">
					<path
   id="SVGID_5_"
   d="m 354.7,335.2 h 24.9 c 0,0 88.7,76.6 122.9,171.2 34.2,94.6 34.2,171.2 34.2,171.2 h -68.5 c 0,0 14.8,-62.6 -22.6,-171.2 -33.5,-97.7 -90.9,-171.2 -90.9,-171.2 z"
   inkscape:connector-curvature="0" />
				</defs>
				<clipPath
   id="SVGID_6_">
					<use
   xlink:href="#SVGID_5_"
   style="overflow:visible"
   id="use31"
   x="0"
   y="0"
   width="100%"
   height="100%" />
				</clipPath>
				<line
   class="st4"
   x1="446.5"
   y1="528"
   x2="517.70001"
   y2="509.60001"
   clip-path="url(#SVGID_6_)"
   id="line34"
   style="fill:none;stroke:#8b523e;stroke-width:12.41790009;stroke-miterlimit:10" />
			</g>
			<g
   id="g46">
				<defs
   id="defs39">
					<path
   id="SVGID_7_"
   d="m 354.7,335.2 h 24.9 c 0,0 88.7,76.6 122.9,171.2 34.2,94.6 34.2,171.2 34.2,171.2 h -68.5 c 0,0 14.8,-62.6 -22.6,-171.2 -33.5,-97.7 -90.9,-171.2 -90.9,-171.2 z"
   inkscape:connector-curvature="0" />
				</defs>
				<clipPath
   id="SVGID_8_">
					<use
   xlink:href="#SVGID_7_"
   style="overflow:visible"
   id="use41"
   x="0"
   y="0"
   width="100%"
   height="100%" />
				</clipPath>
				<line
   class="st5"
   x1="457.10001"
   y1="592.59998"
   x2="536.90002"
   y2="583.40002"
   clip-path="url(#SVGID_8_)"
   id="line44"
   style="fill:none;stroke:#8b523e;stroke-width:12.41790009;stroke-miterlimit:10" />
			</g>
		</g>
		<path
   class="st6"
   d="m 220,479.4 31.9,20.9 39.4,-36.5 -18.4,-33.4 31.9,20.9 39.4,-36.5 -18.4,-33.4 31.9,20.9 36.9,-34.2 C 363.8,334.8 295.6,348 242.3,397.4 189,446.8 170.7,513.7 201.5,547 l 36.9,-34.2 z"
   id="path50"
   inkscape:connector-curvature="0"
   style="fill:#37aa37" />
		<path
   class="st7"
   d="m 455.6,336.7 6.8,37.5 53.6,3.4 11.5,-36.3 6.8,37.5 53.6,3.4 11.5,-36.3 6.8,37.5 50.2,3.2 c 2.9,-45.3 -53.6,-85.7 -126.1,-90.3 -72.5,-4.6 -133.7,28.3 -136.6,73.6 L 444,373 Z"
   id="path52"
   inkscape:connector-curvature="0"
   style="fill:#1f871f" />
		<path
   class="st7"
   d="m 192.9,322 7.3,37.4 53.7,2.7 11.1,-36.5 7.3,37.4 53.7,2.7 11.1,-36.5 7.3,37.4 50.2,2.6 c 2.3,-45.3 -54.7,-85 -127.2,-88.7 -72.5,-3.7 -133.3,30 -135.6,75.3 l 50.2,2.6 z"
   id="path54"
   inkscape:connector-curvature="0"
   style="fill:#1f871f" />
		<path
   class="st6"
   d="m 400.2,299.9 35,15.1 32.6,-42.7 -23.9,-29.7 35,15.1 32.6,-42.7 -23.9,-29.7 35,15.1 30.4,-40 c -36.1,-27.5 -101,-2.9 -145,54.9 -44,57.8 -50.5,127 -14.4,154.4 l 30.5,-40 z"
   id="path56"
   inkscape:connector-curvature="0"
   style="fill:#37aa37" />
		<path
   class="st1"
   d="m 689.6,470 h -20.9 c 0,0 -74.4,64.3 -103.1,143.6 -28.7,79.3 -28.7,143.6 -28.7,143.6 h 57.4 c 0,0 -12.4,-52.5 18.9,-143.6 C 641.5,531.7 689.6,470 689.6,470 Z"
   id="path58"
   inkscape:connector-curvature="0"
   style="fill:#a26e3d" />
		<g
   id="g90">
			<g
   id="g68">
				<defs
   id="defs61">
					<path
   id="SVGID_9_"
   d="m 689.6,470 h -20.9 c 0,0 -74.4,64.3 -103.1,143.6 -28.7,79.3 -28.7,143.6 -28.7,143.6 h 57.4 c 0,0 -12.4,-52.5 18.9,-143.6 C 641.5,531.7 689.6,470 689.6,470 Z"
   inkscape:connector-curvature="0" />
				</defs>
				<clipPath
   id="SVGID_10_">
					<use
   xlink:href="#SVGID_9_"
   style="overflow:visible"
   id="use63"
   x="0"
   y="0"
   width="100%"
   height="100%" />
				</clipPath>
				<line
   class="st8"
   x1="552.5"
   y1="616.29999"
   x2="628"
   y2="632.79999"
   clip-path="url(#SVGID_10_)"
   id="line66"
   style="fill:none;stroke:#8b523e;stroke-width:12.41790009;stroke-miterlimit:10" />
			</g>
			<g
   id="g78">
				<defs
   id="defs71">
					<path
   id="SVGID_11_"
   d="m 689.6,470 h -20.9 c 0,0 -74.4,64.3 -103.1,143.6 -28.7,79.3 -28.7,143.6 -28.7,143.6 h 57.4 c 0,0 -12.4,-52.5 18.9,-143.6 C 641.5,531.7 689.6,470 689.6,470 Z"
   inkscape:connector-curvature="0" />
				</defs>
				<clipPath
   id="SVGID_12_">
					<use
   xlink:href="#SVGID_11_"
   style="overflow:visible"
   id="use73"
   x="0"
   y="0"
   width="100%"
   height="100%" />
				</clipPath>
				<line
   class="st9"
   x1="570.79999"
   y1="556.70001"
   x2="645.20001"
   y2="580.40002"
   clip-path="url(#SVGID_12_)"
   id="line76"
   style="fill:none;stroke:#8b523e;stroke-width:12.41790009;stroke-miterlimit:10" />
			</g>
			<g
   id="g88">
				<defs
   id="defs81">
					<path
   id="SVGID_13_"
   d="m 689.6,470 h -20.9 c 0,0 -74.4,64.3 -103.1,143.6 -28.7,79.3 -28.7,143.6 -28.7,143.6 h 57.4 c 0,0 -12.4,-52.5 18.9,-143.6 C 641.5,531.7 689.6,470 689.6,470 Z"
   inkscape:connector-curvature="0" />
				</defs>
				<clipPath
   id="SVGID_14_">
					<use
   xlink:href="#SVGID_13_"
   style="overflow:visible"
   id="use83"
   x="0"
   y="0"
   width="100%"
   height="100%" />
				</clipPath>
				<line
   class="st10"
   x1="608"
   y1="507.29999"
   x2="666.79999"
   y2="533.79999"
   clip-path="url(#SVGID_14_)"
   id="line86"
   style="fill:none;stroke:#8b523e;stroke-width:12.41790009;stroke-miterlimit:10" />
			</g>
		</g>
		<path
   class="st6"
   d="m 735.4,611.3 -24.5,5 -15.1,-31.8 19.3,-15.8 -24.5,5 -15.1,-31.8 19.3,-15.8 -24.5,5 -14.1,-29.7 c 26.8,-12.7 65.1,11.8 85.5,54.8 20.4,43 15.2,88.1 -11.6,100.9 L 716,627.4 Z"
   id="path92"
   inkscape:connector-curvature="0"
   style="fill:#37aa37" />
		<path
   class="st7"
   d="m 616.4,479 -4.5,24.6 -35.1,2.2 -7.5,-23.8 -4.5,24.6 -35.1,2.2 -7.5,-23.8 -4.5,24.6 -32.8,2.1 c -1.9,-29.6 35.1,-56.1 82.5,-59.1 47.5,-3 87.5,18.5 89.4,48.1 l -32.8,2.1 z"
   id="path94"
   inkscape:connector-curvature="0"
   style="fill:#1f871f" />
		<path
   class="st7"
   d="m 788.3,469.4 -4.8,24.5 -35.1,1.8 -7.2,-23.9 -4.8,24.5 -35.1,1.8 -7.2,-23.9 -4.8,24.5 -32.9,1.7 c -1.5,-29.6 35.8,-55.6 83.3,-58.1 47.5,-2.4 87.2,19.6 88.8,49.3 l -32.9,1.7 z"
   id="path96"
   inkscape:connector-curvature="0"
   style="fill:#1f871f" />
		<path
   class="st6"
   d="m 652.6,454.9 -22.9,9.9 -21.3,-28 15.6,-19.5 -22.9,9.9 -21.3,-28 15.6,-19.5 -22.9,9.9 -19.9,-26.2 c 23.6,-18 66.1,-1.9 94.9,36 28.8,37.8 33,83.1 9.4,101.1 L 637,474.4 Z"
   id="path98"
   inkscape:connector-curvature="0"
   style="fill:#37aa37" />
		<path
   class="st11"
   d="M 795.3,811 C 758.1,725.3 659.4,664 543.5,664 427.6,664 329,725.3 291.8,811 Z"
   id="path100"
   inkscape:connector-curvature="0"
   style="fill:#f8df88" />
	</g>
</g>
</svg>